<svg width="579" height="552" viewBox="0 0 579 552" fill="none" xmlns="http://www.w3.org/2000/svg">
<g opacity="0.5">
<circle cx="27.6527" cy="27.6527" r="27.6527" transform="matrix(0.717514 -0.696545 0.717514 0.696545 69.4447 174.036)" fill="#FA7D0A"/>
<circle cx="27.6527" cy="27.6527" r="27.6527" transform="matrix(0.717514 -0.696545 0.717514 0.696545 0.000610352 106.622)" fill="#FA7D0A"/>
<path d="M42.1631 133.106L66.9646 109.03C79.3168 127.299 87.9356 135.737 106.647 147.552L81.8455 171.629C70.0452 153.288 60.668 144.996 42.1631 133.106Z" fill="#FA7D0A"/>
<circle cx="27.6527" cy="27.6527" r="27.6527" transform="matrix(0.717514 -0.696545 0.717514 0.696545 209.743 174.036)" fill="#1D3557"/>
<circle cx="27.6527" cy="27.6527" r="27.6527" transform="matrix(0.717514 -0.696545 0.717514 0.696545 140.299 106.622)" fill="#1D3557"/>
<path d="M182.461 133.106L207.263 109.03C219.615 127.299 228.234 135.737 246.945 147.552L222.144 171.629C210.344 153.288 200.966 144.996 182.461 133.106Z" fill="#1D3557"/>
<circle cx="27.6527" cy="27.6527" r="27.6527" transform="matrix(-0.717514 -0.696544 0.717514 -0.696544 179.276 77.0457)" fill="#457B9D"/>
<circle cx="27.6527" cy="27.6527" r="27.6527" transform="matrix(-0.717514 -0.696545 0.717514 -0.696545 109.832 144.46)" fill="#457B9D"/>
<path d="M137.114 103.53L112.312 79.4531C131.132 67.4619 139.823 59.0949 151.995 40.9305L176.796 65.0071C157.903 76.4625 149.362 85.5657 137.114 103.53Z" fill="#457B9D"/>
<circle cx="27.6527" cy="27.6527" r="27.6527" transform="matrix(-0.717514 -0.696545 0.717514 -0.696545 179.276 213.244)" fill="#E63946"/>
<circle cx="27.6527" cy="27.6527" r="27.6527" transform="matrix(-0.717514 -0.696544 0.717514 -0.696544 109.832 280.658)" fill="#E63946"/>
<path d="M137.114 239.728L112.312 215.651C131.132 203.66 139.823 195.293 151.995 177.129L176.796 201.205C157.903 212.661 149.362 221.764 137.114 239.728Z" fill="#E63946"/>
<circle cx="27.6527" cy="27.6527" r="27.6527" transform="matrix(0.717514 -0.696545 0.717514 0.696545 69.4441 445.339)" fill="#FA7D0A"/>
<circle cx="27.6527" cy="27.6527" r="27.6527" transform="matrix(0.717514 -0.696545 0.717514 0.696545 0 377.924)" fill="#FA7D0A"/>
<path d="M42.1625 404.409L66.964 380.332C79.3162 398.602 87.935 407.039 106.646 418.855L81.8448 442.931C70.0446 424.591 60.6674 416.299 42.1625 404.409Z" fill="#FA7D0A"/>
<circle cx="27.6527" cy="27.6527" r="27.6527" transform="matrix(0.717514 -0.696545 0.717514 0.696545 209.742 445.339)" fill="#1D3557"/>
<circle cx="27.6527" cy="27.6527" r="27.6527" transform="matrix(0.717514 -0.696545 0.717514 0.696545 140.298 377.924)" fill="#1D3557"/>
<path d="M182.461 404.409L207.262 380.332C219.615 398.602 228.233 407.039 246.945 418.855L222.143 442.931C210.343 424.591 200.966 416.299 182.461 404.409Z" fill="#1D3557"/>
<circle cx="27.6527" cy="27.6527" r="27.6527" transform="matrix(-0.717514 -0.696544 0.717514 -0.696544 179.276 348.348)" fill="#457B9D"/>
<circle cx="27.6527" cy="27.6527" r="27.6527" transform="matrix(-0.717514 -0.696545 0.717514 -0.696545 109.832 415.763)" fill="#457B9D"/>
<path d="M137.113 374.832L112.312 350.756C131.131 338.764 139.823 330.397 151.994 312.233L176.796 336.31C157.903 347.765 149.361 356.868 137.113 374.832Z" fill="#457B9D"/>
<circle cx="27.6527" cy="27.6527" r="27.6527" transform="matrix(-0.717514 -0.696545 0.717514 -0.696545 179.276 484.546)" fill="#E63946"/>
<circle cx="27.6527" cy="27.6527" r="27.6527" transform="matrix(-0.717514 -0.696544 0.717514 -0.696544 109.832 551.961)" fill="#E63946"/>
<path d="M137.113 511.031L112.312 486.954C131.131 474.963 139.823 466.596 151.994 448.431L176.796 472.508C157.903 483.963 149.361 493.066 137.113 511.031Z" fill="#E63946"/>
<circle cx="27.6527" cy="27.6527" r="27.6527" transform="matrix(0.717514 -0.696545 0.717514 0.696545 210.143 308.753)" fill="#FA7D0A"/>
<circle cx="27.6527" cy="27.6527" r="27.6527" transform="matrix(0.717514 -0.696545 0.717514 0.696545 140.699 241.338)" fill="#FA7D0A"/>
<path d="M182.861 267.823L207.663 243.746C220.015 262.016 228.634 270.453 247.345 282.269L222.543 306.345C210.743 288.005 201.366 279.713 182.861 267.823Z" fill="#FA7D0A"/>
<circle cx="27.6527" cy="27.6527" r="27.6527" transform="matrix(0.717514 -0.696545 0.717514 0.696545 350.441 308.753)" fill="#1D3557"/>
<circle cx="27.6527" cy="27.6527" r="27.6527" transform="matrix(0.717514 -0.696545 0.717514 0.696545 280.997 241.338)" fill="#1D3557"/>
<path d="M323.159 267.823L347.961 243.746C360.313 262.016 368.932 270.453 387.643 282.269L362.842 306.345C351.042 288.005 341.664 279.713 323.159 267.823Z" fill="#1D3557"/>
<circle cx="27.6527" cy="27.6527" r="27.6527" transform="matrix(-0.717514 -0.696544 0.717514 -0.696544 319.974 211.762)" fill="#457B9D"/>
<circle cx="27.6527" cy="27.6527" r="27.6527" transform="matrix(-0.717514 -0.696545 0.717514 -0.696545 250.53 279.177)" fill="#457B9D"/>
<path d="M277.812 238.246L253.01 214.17C271.83 202.178 280.521 193.811 292.693 175.647L317.494 199.724C298.601 211.179 290.06 220.282 277.812 238.246Z" fill="#457B9D"/>
<circle cx="27.6527" cy="27.6527" r="27.6527" transform="matrix(-0.717514 -0.696545 0.717514 -0.696545 319.974 347.96)" fill="#E63946"/>
<circle cx="27.6527" cy="27.6527" r="27.6527" transform="matrix(-0.717514 -0.696544 0.717514 -0.696544 250.53 415.375)" fill="#E63946"/>
<path d="M277.812 374.445L253.01 350.368C271.83 338.377 280.521 330.01 292.693 311.845L317.494 335.922C298.601 347.377 290.06 356.48 277.812 374.445Z" fill="#E63946"/>
<circle cx="27.6527" cy="27.6527" r="27.6527" transform="matrix(0.717514 -0.696545 0.717514 0.696545 359.337 174.822)" fill="#FA7D0A"/>
<circle cx="27.6527" cy="27.6527" r="27.6527" transform="matrix(0.717514 -0.696545 0.717514 0.696545 289.893 107.408)" fill="#FA7D0A"/>
<path d="M332.055 133.892L356.857 109.815C369.209 128.085 377.828 136.522 396.539 148.338L371.738 172.415C359.937 154.074 350.56 145.782 332.055 133.892Z" fill="#FA7D0A"/>
<circle cx="27.6527" cy="27.6527" r="27.6527" transform="matrix(0.717514 -0.696545 0.717514 0.696545 499.635 174.822)" fill="#1D3557"/>
<circle cx="27.6527" cy="27.6527" r="27.6527" transform="matrix(0.717514 -0.696545 0.717514 0.696545 430.191 107.408)" fill="#1D3557"/>
<path d="M472.354 133.892L497.155 109.815C509.507 128.085 518.126 136.522 536.837 148.338L512.036 172.415C500.236 154.074 490.859 145.782 472.354 133.892Z" fill="#1D3557"/>
<circle cx="27.6527" cy="27.6527" r="27.6527" transform="matrix(-0.717514 -0.696544 0.717514 -0.696544 469.168 77.8315)" fill="#457B9D"/>
<circle cx="27.6527" cy="27.6527" r="27.6527" transform="matrix(-0.717514 -0.696545 0.717514 -0.696545 399.724 145.246)" fill="#457B9D"/>
<path d="M427.006 104.316L402.205 80.239C421.024 68.2478 429.716 59.8808 441.887 41.7163L466.688 65.793C447.796 77.2484 439.254 86.3516 427.006 104.316Z" fill="#457B9D"/>
<circle cx="27.6527" cy="27.6527" r="27.6527" transform="matrix(-0.717514 -0.696545 0.717514 -0.696545 469.168 214.03)" fill="#E63946"/>
<circle cx="27.6527" cy="27.6527" r="27.6527" transform="matrix(-0.717514 -0.696544 0.717514 -0.696544 399.724 281.444)" fill="#E63946"/>
<path d="M427.006 240.514L402.205 216.437C421.024 204.446 429.716 196.079 441.887 177.915L466.688 201.991C447.796 213.447 439.254 222.55 427.006 240.514Z" fill="#E63946"/>
<circle cx="27.6527" cy="27.6527" r="27.6527" transform="matrix(0.717514 -0.696545 0.717514 0.696545 359.337 444.426)" fill="#FA7D0A"/>
<circle cx="27.6527" cy="27.6527" r="27.6527" transform="matrix(0.717514 -0.696545 0.717514 0.696545 289.893 377.011)" fill="#FA7D0A"/>
<path d="M332.055 403.496L356.857 379.419C369.209 397.688 377.828 406.126 396.539 417.942L371.738 442.018C359.937 423.678 350.56 415.386 332.055 403.496Z" fill="#FA7D0A"/>
<circle cx="27.6527" cy="27.6527" r="27.6527" transform="matrix(0.717514 -0.696545 0.717514 0.696545 499.635 444.426)" fill="#1D3557"/>
<circle cx="27.6527" cy="27.6527" r="27.6527" transform="matrix(0.717514 -0.696545 0.717514 0.696545 430.191 377.011)" fill="#1D3557"/>
<path d="M472.354 403.496L497.155 379.419C509.507 397.688 518.126 406.126 536.837 417.942L512.036 442.018C500.236 423.678 490.859 415.386 472.354 403.496Z" fill="#1D3557"/>
<circle cx="27.6527" cy="27.6527" r="27.6527" transform="matrix(-0.717514 -0.696544 0.717514 -0.696544 469.168 347.435)" fill="#457B9D"/>
<circle cx="27.6527" cy="27.6527" r="27.6527" transform="matrix(-0.717514 -0.696545 0.717514 -0.696545 399.724 414.85)" fill="#457B9D"/>
<path d="M427.006 373.919L402.205 349.843C421.024 337.851 429.716 329.484 441.887 311.32L466.688 335.397C447.796 346.852 439.254 355.955 427.006 373.919Z" fill="#457B9D"/>
<circle cx="27.6527" cy="27.6527" r="27.6527" transform="matrix(-0.717514 -0.696545 0.717514 -0.696545 469.168 483.633)" fill="#E63946"/>
<circle cx="27.6527" cy="27.6527" r="27.6527" transform="matrix(-0.717514 -0.696544 0.717514 -0.696544 399.724 551.048)" fill="#E63946"/>
<path d="M427.006 510.117L402.205 486.041C421.024 474.05 429.716 465.683 441.887 447.518L466.688 471.595C447.796 483.05 439.254 492.153 427.006 510.117Z" fill="#E63946"/>
</g>
</svg>
